<svg id="Capa_1" enable-background="new 0 0 510.001 510.001" height="512" viewBox="0 0 510.001 510.001" width="512" xmlns="http://www.w3.org/2000/svg"><g><g fill="#dcf0ff"><path d="m443.458 69.43c3.554-13.49-11.767-24.222-23.222-16.034l-59.9 42.8c-11.906 8.507-5.735 27.206 8.733 27.206 3.018 0 6.065-.908 8.708-2.796l59.9-42.8c4.509-3.222 2.329-4.341 2.329 1.195v96c0 8.284 6.716 15 15 15s15-6.716 15-15v-96c.001-14.068-17.634-20.315-26.548-9.571z"/><path d="m237.404 58.525 71.42 59.51c2.805 2.336 6.209 3.477 9.595 3.477 13.965 0 20.378-17.552 9.61-26.524l-71.42-59.51c-6.364-5.302-15.823-4.442-21.126 1.922-5.303 6.363-4.443 15.821 1.921 21.125z"/><path d="m440.467 239.221c-11.176 9.575-43.391 37.19-63.4 54.34-9.634 8.223-24.314 1.537-24.74-10.82-9.71 7.74-24.32.87-24.32-11.74v-112c0-8.28 6.72-15 15-15s15 6.72 15 15v111.38c46.245-39.637 25.579-21.917 62.94-53.94 6.29-5.39 15.76-4.66 21.15 1.63 5.39 6.289 4.66 15.76-1.63 21.15z"/></g><path d="m420.887 256.001c-1.735 1.495 4.57-3.917-43.82 37.56-9.611 8.203-24.313 1.554-24.74-10.82-9.71 7.74-24.32.87-24.32-11.74v-12.55c12.527-4.229 26.951-3.081 39.04 4.18 2.82-2.41 4.93-4.22 7.73-6.63z" fill="#bee6fa"/><path d="m311.007 288.001h-64c-8.284 0-15 6.716-15 15s6.716 15 15 15h64c8.284 0 15-6.716 15-15s-6.716-15-15-15z" fill="#bee6fa"/><path d="m360.336 333.805 59.9 42.8c2.644 1.889 5.689 2.796 8.708 2.796 14.475 0 20.635-18.702 8.733-27.206l-59.9-42.8c-11.344-8.105-26.801 2.45-23.222 16.034-8.908-10.737-26.549-4.51-26.549 9.57v96c0 14.068 17.635 20.315 26.549 9.57-3.596 13.647 11.925 24.106 23.222 16.034l59.9-42.8c6.74-4.816 8.3-14.185 3.484-20.925-4.817-6.742-14.187-8.302-20.926-3.484-65.418 46.742-60.908 43.243-62.755 45.486.752-2.809.526 5.36.526-99.882.001-5.534-2.177-4.414 2.33-1.193z" fill="#bee6fa"/><path d="m390.007 303.001c0 25.814-20.982 47-47 47-31.976 0-54.839-31.525-44.55-62 9.741-28.805 43.427-40.485 68.59-25.37 13.962 8.335 22.96 23.482 22.96 40.37z" fill="#66b3ff"/><circle cx="343.007" cy="463.001" fill="#66b3ff" r="47"/><circle cx="455.007" cy="383.001" fill="#66b3ff" r="47"/><circle cx="455.007" cy="207.001" fill="#80d4ff" r="47"/><circle cx="455.007" cy="47.001" fill="#80d4ff" r="47"/><circle cx="343.007" cy="127.001" fill="#80d4ff" r="47"/><path d="m262.007 25.041v459.92c0 4.9-2.4 9.5-6.42 12.3-39.173 27.329-93.346 8.593-108.07-36.19-32.68-5.34-57.93-33.06-59.44-66.86-32.138-10.986-53.03-44.081-47.06-79.19-43.661-27.459-44.397-92.118 0-120.04-5.973-35.128 14.939-68.21 47.06-79.19 1.51-33.8 26.76-61.52 59.44-66.86 14.732-44.806 68.914-63.508 108.07-36.19 4.02 2.8 6.42 7.4 6.42 12.3z" fill="#ff7b4a"/><path d="m262.007 256.001v228.96c0 4.9-2.4 9.5-6.42 12.3-39.173 27.329-93.346 8.593-108.07-36.19-32.68-5.34-57.93-33.06-59.44-66.86-32.138-10.986-53.03-44.081-47.06-79.19-20.13-12.66-32.67-34.58-32.99-59.02z" fill="#ff435b"/><path d="m262.007 215.001c0 76.818.637 73.514-1.58 77.97-6.38 28.04-31.48 49.03-61.42 49.03-8.28 0-15-6.72-15-15s6.72-15 15-15c18.2 0 33-14.8 33-33 0-18.182-14.8-33-33-33-8.28 0-15-6.72-15-15s6.72-15 15-15c12.09 0 23.4 3.43 33 9.36v-10.36c0-31.43-25.57-57-57-57-8.28 0-15-6.72-15-15s6.72-15 15-15c47.97 0 87 39.03 87 87z" fill="#ff435b"/><path d="m262.007 256.001c0 33.022.524 32.74-1.58 36.97-6.38 28.04-31.48 49.03-61.42 49.03-8.28 0-15-6.72-15-15s6.72-15 15-15c29.188 0 43.87-35.272 23.63-56z" fill="#cd0000"/></g></svg>