<svg id="Capa_1" enable-background="new 0 0 512 512" height="512" viewBox="0 0 512 512" width="512" xmlns="http://www.w3.org/2000/svg"><g><path d="m0 416v30c0 24.853 20.147 45 45 45h422c24.853 0 45-20.147 45-45v-30l-256-20z" fill="#fff5f5"/><path d="m256 491h211c24.853 0 45-20.147 45-45v-30l-256-20z" fill="#e2dff4"/><path d="m417 21h-322c-30.376 0-55 24.624-55 55v275h432v-275c0-30.376-24.624-55-55-55z" fill="#fff5f5"/><path d="m417 21h-161v330h216v-275c0-30.376-24.624-55-55-55z" fill="#e2dff4"/><path d="m417 51h-322c-13.785 0-25 11.215-25 25v275h372v-275c0-13.785-11.215-25-25-25z" fill="#8989a5"/><path d="m417 51h-161v300h186v-275c0-13.785-11.215-25-25-25z" fill="#616173"/><path d="m327.866 290.409c-30.878 0-75.441-30.203-110.757-65.518-23.775-23.774-43.14-49.41-54.525-72.183-17.69-35.38-10.875-53.335-2.043-62.167 26.72-26.72 88.373 10.593 134.35 56.569 23.775 23.774 43.14 49.41 54.525 72.183 17.69 35.38 10.875 53.335 2.043 62.167-6.195 6.195-14.271 8.949-23.593 8.949zm-146.052-178.595c-.714 2.166-.855 11.76 9.389 30.931 10.223 19.13 26.956 40.77 47.119 60.933s41.803 36.896 60.933 47.119c19.172 10.245 28.768 10.103 30.931 9.39.714-2.166.855-11.76-9.389-30.931-10.223-19.13-26.956-40.77-47.119-60.933s-41.803-36.896-60.933-47.119c-19.172-10.245-28.768-10.103-30.931-9.39z" fill="#ff6378"/><path d="m294.891 147.109c-12.177-12.177-25.454-23.746-38.891-33.679v38.424c5.951 5.16 11.876 10.666 17.678 16.467 20.163 20.163 36.896 41.802 47.119 60.933 10.244 19.171 10.103 28.766 9.389 30.931-2.163.713-11.759.855-30.931-9.39-13.625-7.281-28.523-17.877-43.255-30.651v38.424c25.53 18.873 51.635 31.84 71.866 31.84 9.321 0 17.397-2.753 23.593-8.949 8.832-8.832 15.647-26.787-2.043-62.167-11.386-22.773-30.75-48.408-54.525-72.183z" fill="#ff1f3d"/><path d="m512 416-40-83.097h-432l-40 83.097z" fill="#e2dff4"/><path d="m256 332.903v83.097h256l-40-83.097z" fill="#bebcdd"/><path d="m184.134 290.409c-9.324 0-17.396-2.752-23.593-8.949-8.832-8.833-15.647-26.788 2.043-62.168 11.386-22.773 30.75-48.408 54.525-72.183 45.976-45.976 107.629-83.288 134.35-56.569 8.832 8.833 15.647 26.788-2.043 62.168-11.386 22.773-30.75 48.408-54.525 72.183-35.313 35.312-79.879 65.518-110.757 65.518zm-2.32-30.223c2.165.716 11.762.854 30.931-9.39 19.13-10.222 40.77-26.956 60.933-47.119s36.896-41.802 47.119-60.933c10.244-19.171 10.103-28.766 9.389-30.931-2.162-.712-11.761-.854-30.931 9.39-19.13 10.222-40.77 26.956-60.933 47.119s-36.896 41.802-47.119 60.933c-10.244 19.171-10.102 28.766-9.389 30.931zm.117.282h.011z" fill="#d2eb5a"/><path d="m256 113.431v38.424c14.732-12.774 29.629-23.37 43.255-30.651 19.17-10.244 28.769-10.102 30.931-9.39.714 2.166.855 11.76-9.389 30.931-10.223 19.13-26.956 40.77-47.119 60.933-5.802 5.802-11.727 11.307-17.678 16.467v38.423c13.437-9.933 26.714-21.501 38.891-33.678 23.775-23.774 43.14-49.41 54.525-72.183 17.69-35.38 10.875-53.335 2.043-62.168-19.644-19.641-58.165-4.678-95.459 22.892z" fill="#00da80"/></g></svg>