<?xml version="1.0" encoding="iso-8859-1"?>
<!-- Generator: Adobe Illustrator 19.0.0, SVG Export Plug-In . SVG Version: 6.00 Build 0)  -->
<svg version="1.1" id="Capa_1" xmlns="http://www.w3.org/2000/svg" xmlns:xlink="http://www.w3.org/1999/xlink" x="0px" y="0px"
	 viewBox="0 0 512.003 512.003" style="enable-background:new 0 0 512.003 512.003;" xml:space="preserve">
<rect x="103.126" y="89.013" transform="matrix(-0.1071 0.9942 -0.9942 -0.1071 602.0192 -40.5702)" style="fill:#132F3B;" width="432.202" height="322.06"/>
<rect x="24.281" y="10.773" transform="matrix(-0.9975 0.0701 -0.0701 -0.9975 386.0391 440.1602)" style="fill:#388CB2;" width="322.03" height="432.162"/>
<polygon style="fill:#265D77;" points="255.732,438.527 361.1,431.118 330.783,0 255.732,5.278 "/>
<path style="fill:#B7E4F8;" d="M98.869,512h292.025V85.037H98.869V512z"/>
<rect x="255.732" y="85.037" style="fill:#6FC8F1;" width="135.164" height="426.966"/>
<g>
	<rect x="146.987" y="299.878" style="fill:#265D77;" width="195.796" height="30.021"/>
	<rect x="146.987" y="353.275" style="fill:#265D77;" width="195.796" height="30.021"/>
	<rect x="146.987" y="406.672" style="fill:#265D77;" width="195.796" height="30.021"/>
</g>
<g>
	<rect x="255.732" y="299.878" style="fill:#132F3B;" width="87.047" height="30.021"/>
	<rect x="255.732" y="406.672" style="fill:#132F3B;" width="87.047" height="30.021"/>
	<rect x="255.732" y="353.275" style="fill:#132F3B;" width="87.047" height="30.021"/>
</g>
<g>
	<path style="fill:#265D77;" d="M143.957,213.427c0-29.044,22.289-49.442,52.684-49.442c18.508,0,33.097,6.755,42.418,18.912
		l-20.128,17.966c-5.539-7.025-12.157-11.078-20.668-11.078c-13.238,0-22.154,9.186-22.154,23.64s8.916,23.64,22.154,23.64
		c8.511,0,15.13-4.053,20.668-11.078l20.128,17.966c-9.321,12.157-23.911,18.912-42.418,18.912
		C166.246,262.869,143.957,242.471,143.957,213.427z"/>
	<path style="fill:#265D77;" d="M349.293,166.146l-39.986,94.562h-31.341l-39.987-94.562h34.312l22.56,55.251l23.101-55.251H349.293
		z"/>
</g>
<polygon style="fill:#132F3B;" points="317.953,166.146 294.853,221.398 272.293,166.146 255.732,166.146 255.732,208.127 
	277.967,260.708 309.308,260.708 349.293,166.146 "/>
<g>
</g>
<g>
</g>
<g>
</g>
<g>
</g>
<g>
</g>
<g>
</g>
<g>
</g>
<g>
</g>
<g>
</g>
<g>
</g>
<g>
</g>
<g>
</g>
<g>
</g>
<g>
</g>
<g>
</g>
</svg>
